HIERARCHY
ROOT Hips
{
	OFFSET 0.00000 0.00000 0.00000
	CHANNELS 6 Xposition Yposition Zposition Zrotation Yrotation Xrotation 
	JOINT LHipJoint
	{
		OFFSET 0 0 0
		CHANNELS 3 Zrotation Yrotation Xrotation
		JOINT LeftUpLeg
		{
			OFFSET 1.37590 -1.78394 0.89329
			CHANNELS 3 Zrotation Yrotation Xrotation
			JOINT LeftLeg
			{
				OFFSET 2.47928 -6.81178 0.00000
				CHANNELS 3 Zrotation Yrotation Xrotation
				JOINT LeftFoot
				{
					OFFSET 2.63345 -7.23535 0.00000
					CHANNELS 3 Zrotation Yrotation Xrotation
					JOINT LeftToeBase
					{
						OFFSET 0.23938 -0.65768 2.27012
						CHANNELS 3 Zrotation Yrotation Xrotation
						End Site
						{
							OFFSET 0.00000 -0.00000 1.18363
						}
					}
				}
			}
		}
	}
	JOINT RHipJoint
	{
		OFFSET 0 0 0
		CHANNELS 3 Zrotation Yrotation Xrotation
		JOINT RightUpLeg
		{
			OFFSET -1.33617 -1.78394 0.89329
			CHANNELS 3 Zrotation Yrotation Xrotation
			JOINT RightLeg
			{
				OFFSET -2.56922 -7.05888 0.00000
				CHANNELS 3 Zrotation Yrotation Xrotation
				JOINT RightFoot
				{
					OFFSET -2.56568 -7.04915 0.00000
					CHANNELS 3 Zrotation Yrotation Xrotation
					JOINT RightToeBase
					{
						OFFSET -0.27533 -0.75646 2.18105
						CHANNELS 3 Zrotation Yrotation Xrotation
						End Site
						{
							OFFSET -0.00000 -0.00000 1.15233
						}
					}
				}
			}
		}
	}
	JOINT LowerBack
	{
		OFFSET 0 0 0
		CHANNELS 3 Zrotation Yrotation Xrotation
		JOINT Spine
		{
			OFFSET 0.06190 2.15152 -0.00935
			CHANNELS 3 Zrotation Yrotation Xrotation
			JOINT Spine1
			{
				OFFSET 0.06334 2.15332 0.00872
				CHANNELS 3 Zrotation Yrotation Xrotation
				JOINT Neck
				{
					OFFSET 0 0 0
					CHANNELS 3 Zrotation Yrotation Xrotation
					JOINT Neck1
					{
						OFFSET -0.04202 1.66908 0.23524
						CHANNELS 3 Zrotation Yrotation Xrotation
						JOINT Head
						{
							OFFSET 0.07510 1.69357 -0.24440
							CHANNELS 3 Zrotation Yrotation Xrotation
							End Site
							{
								OFFSET 0.02556 1.71719 -0.11000
							}
						}
					}
				}
				JOINT LeftShoulder
				{
					OFFSET 0 0 0
					CHANNELS 3 Zrotation Yrotation Xrotation
					JOINT LeftArm
					{
						OFFSET 3.67168 1.26306 -0.41342
						CHANNELS 3 Zrotation Yrotation Xrotation
						JOINT LeftForeArm
						{
							OFFSET 4.68510 -0.00000 -0.00000
							CHANNELS 3 Zrotation Yrotation Xrotation
							JOINT LeftHand
							{
								OFFSET 3.39626 -0.00000 -0.00000
								CHANNELS 3 Zrotation Yrotation Xrotation
								JOINT LeftFingerBase
								{
									OFFSET 0 0 0
									CHANNELS 3 Zrotation Yrotation Xrotation
									JOINT LeftHandIndex1
									{
										OFFSET 0.48608 -0.00000 -0.00000
										CHANNELS 3 Zrotation Yrotation Xrotation
										End Site
										{
											OFFSET 0.39189 -0.00000 -0.00000
										}
									}
								}
								JOINT LThumb
								{
									OFFSET 0 0 0
									CHANNELS 3 Zrotation Yrotation Xrotation
									End Site
									{
										OFFSET 0.39787 -0.00000 0.39787
									}
								}
							}
						}
					}
				}
				JOINT RightShoulder
				{
					OFFSET 0 0 0
					CHANNELS 3 Zrotation Yrotation Xrotation
					JOINT RightArm
					{
						OFFSET -3.04136 1.42992 -0.76390
						CHANNELS 3 Zrotation Yrotation Xrotation
						JOINT RightForeArm
						{
							OFFSET -5.55576 -0.00000 -0.00000
							CHANNELS 3 Zrotation Yrotation Xrotation
							JOINT RightHand
							{
								OFFSET -3.32774 -0.00000 -0.00000
								CHANNELS 3 Zrotation Yrotation Xrotation
								JOINT RightFingerBase
								{
									OFFSET 0 0 0
									CHANNELS 3 Zrotation Yrotation Xrotation
									JOINT RightHandIndex1
									{
										OFFSET -0.50763 -0.00000 -0.00000
										CHANNELS 3 Zrotation Yrotation Xrotation
										End Site
										{
											OFFSET -0.40926 -0.00000 -0.00000
										}
									}
								}
								JOINT RThumb
								{
									OFFSET 0 0 0
									CHANNELS 3 Zrotation Yrotation Xrotation
									End Site
									{
										OFFSET -0.41551 -0.00000 0.41551
									}
								}
							}
						}
					}
				}
			}
		}
	}
}
MOTION
Frames: 12
Frame Time: 0.0266667
0.00 0.00 0.00 -227.8390 -88.6017 223.5770 0.0000 0.0000 0.0000 -24.9324 -1.3228 8.6600 1.2763 7.1597 20.1894 0.2095 -7.2192 -8.9466 0.0783 -1.8055 -4.9684 0.0000 0.0000 0.0000 3.3020 13.9713 -86.2682 -19.7083 -19.9980 89.1470 -75.5948 -66.9135 -106.6169 -1.4825 -7.6927 21.7846 -4.8492 -6.9504 9.4904 2.7045 -9.6995 -0.3836 6.7026 -4.6883 -4.4020 -2.9056 -0.0431 -18.7188 6.6351 -0.6133 15.2196 2.6098 0.1795 7.8090 -0.0000 0.0000 0.0000 -78.7162 -26.1572 41.6147 40.1975 -48.1864 -18.5863 -0.0000 0.0000 -4.5314 10.5769 6.8451 1.2749 -7.1250 0.0000 -0.0000 -13.6218 36.6363 2.8677 -0.0000 0.0000 0.0000 75.6896 -27.8733 2.6733 -16.3901 26.0467 -3.8156 0.0000 0.0000 7.7693 -8.0100 -8.4362 1.1827 7.1250 -0.0000 -0.0000 16.0892 -38.0251 2.8519
0.00 0.00 0.00 -232.8570 -88.4672 228.7940 0.0000 0.0000 0.0000 -25.0381 -1.3266 8.8389 1.2908 7.1989 20.3060 0.1796 -7.6159 -8.6261 0.1013 -2.0526 -5.6510 0.0000 0.0000 0.0000 3.3328 14.0880 -85.9760 -19.6332 -19.9968 88.9275 -137.1142 68.9804 83.4912 -1.4821 -7.6919 21.7822 -4.9849 -6.9569 9.4073 2.6778 -9.7200 -0.4297 6.7409 -4.6948 -4.3840 -2.8874 -0.0375 -18.7628 6.6170 -0.6011 15.1424 2.6014 0.1851 7.7903 0.0000 -0.0000 0.0000 -78.5278 -26.2435 41.5963 40.4343 -48.3251 -18.7630 -0.0000 0.0000 -4.4000 10.4405 6.8159 1.2528 -7.1250 0.0000 -0.0000 -13.7285 36.5992 2.9040 0.0000 -0.0000 0.0000 75.7228 -28.3089 2.8333 -16.3207 25.9536 -3.7852 0.0000 0.0000 7.8853 -7.8760 -8.2699 1.1399 7.1250 -0.0000 -0.0000 16.1611 -37.8546 2.9354
0.00 0.00 0.00 -236.0950 -88.3187 232.2390 0.0000 0.0000 0.0000 -25.1294 -1.3184 9.0476 1.2984 7.2193 20.3666 0.1497 -8.0073 -8.3177 0.1291 -2.3161 -6.3802 0.0000 0.0000 0.0000 3.4109 14.2092 -85.5505 -19.4366 -19.9924 88.3524 -154.1466 63.4926 64.4231 -1.4677 -7.6561 21.6743 -5.0974 -6.9490 9.3022 2.6484 -9.7178 -0.4678 6.7578 -4.6914 -4.3528 -2.8690 -0.0386 -18.8170 6.6010 -0.5980 15.0560 2.5925 0.1866 7.7707 0.0000 -0.0000 0.0000 -78.3781 -26.2921 41.5964 40.6653 -48.4592 -18.9357 -0.0000 0.0000 -4.3403 10.3278 6.8015 1.2363 -7.1250 0.0000 -0.0000 -13.8184 36.5783 2.9312 0.0000 -0.0000 0.0000 75.8052 -28.7019 3.0361 -16.2809 25.9001 -3.7678 0.0000 0.0000 7.9747 -7.7425 -8.1119 1.0991 7.1250 -0.0000 -0.0000 16.2344 -37.6924 3.0166
0.00 0.00 0.00 -238.6350 -88.0648 235.2680 0.0000 0.0000 0.0000 -25.2103 -1.2955 9.4960 1.2950 7.2100 20.3389 0.0919 -8.7451 -7.7494 0.1968 -2.8564 -7.8792 0.0000 0.0000 0.0000 3.7271 14.4469 -84.3805 -18.7292 -19.9612 86.2823 -171.4827 48.0935 44.4434 -1.4327 -7.5680 21.4095 -5.1958 -6.9090 8.9718 2.6047 -9.6607 -0.5403 6.7167 -4.6638 -4.2452 -2.8306 -0.0568 -18.9550 6.5614 -0.6114 14.8733 2.5699 0.1802 7.7345 0.0000 0.0000 0.0000 -78.1819 -26.2468 41.6836 41.1319 -48.7264 -19.2856 -0.0000 0.0000 -4.5135 10.2290 6.7705 1.2187 -7.1250 0.0000 -0.0000 -13.8936 36.5418 2.9606 0.0000 0.0000 0.0000 76.1035 -29.3839 3.6044 -16.3231 25.9568 -3.7863 0.0000 0.0000 7.9909 -7.4763 -7.9266 1.0368 7.1250 -0.0000 -0.0000 16.4109 -37.4952 3.1339
0.00 0.00 0.00 -267.4880 -87.7649 268.3320 0.0000 0.0000 0.0000 -24.9935 -1.6405 11.0716 1.1384 6.7759 19.0532 -0.0916 -11.0198 -6.2496 0.6221 -5.0473 -14.0434 0.0000 0.0000 0.0000 6.2846 13.3342 -73.7451 -13.7368 -19.0323 71.3992 177.8921 1.1169 27.8858 -1.6003 -7.9785 22.6489 -4.7171 -6.7895 5.5026 2.7697 -9.3124 -1.6706 6.1969 -4.5058 -3.5897 -3.0932 -0.4259 -19.2630 6.3718 -0.9442 14.0294 2.5010 -0.0099 7.5248 -0.0000 -0.0000 0.0000 -79.4998 -22.9025 44.0884 42.8975 -49.6959 -20.6225 -0.0000 0.0000 -5.0411 10.2154 7.4669 1.3415 -7.1250 0.0000 -0.0000 -14.0460 37.2268 2.7529 -0.0000 -0.0000 0.0000 78.9097 -31.1800 9.4034 -18.7434 29.0986 -4.9055 0.0000 0.0000 4.4329 -7.6688 -7.9634 1.0687 7.1250 -0.0000 -0.0000 16.2607 -37.5437 3.0832
0.00 0.00 0.00 -331.5850 -87.2838 335.2480 0.0000 0.0000 0.0000 -22.2417 -1.6690 13.5195 1.0232 6.4350 18.0518 -0.3230 -12.6321 -3.5974 1.1274 -6.7441 -18.9596 0.0000 0.0000 0.0000 10.9712 9.8106 -57.2148 -9.0941 -16.8679 56.4150 177.4874 -1.6591 29.5701 -1.7176 -8.2513 23.4800 -3.7851 -6.7795 2.2572 3.4870 -9.1453 -2.5489 6.0441 -4.4679 -2.7358 -3.3662 -0.8545 -19.4110 5.9782 -1.3421 13.5610 2.3630 -0.2504 7.4136 -0.0000 0.0000 0.0000 -82.3627 -15.8912 47.6680 43.1827 -49.8465 -20.8403 -0.0000 0.0000 -5.2745 9.9978 8.7830 1.5419 -7.1250 0.0000 -0.0000 -14.5116 38.5052 2.3810 -0.0000 0.0000 0.0000 81.8594 -29.6161 15.1352 -23.5969 34.7351 -7.4756 0.0000 -0.0000 -1.5647 -8.8120 -8.5824 1.3253 7.1250 -0.0000 -0.0000 15.4567 -38.2238 2.6551
0.00 0.00 0.00 -349.9230 -86.2148 354.6000 0.0000 0.0000 0.0000 -20.1158 -1.7359 13.1847 1.3658 7.3967 20.8959 -0.5198 -13.3831 0.2700 1.5470 -7.8508 -22.2619 0.0000 0.0000 0.0000 14.3288 7.3601 -46.5265 -7.0191 -15.3480 48.9465 179.3303 -1.0388 15.1405 -0.3484 -3.7928 10.4944 -3.3488 -6.6361 -0.0908 3.8729 -8.8979 -2.9593 5.9190 -4.3816 -1.8849 -3.5644 -1.0855 -19.3080 5.4303 -1.5042 13.7441 2.1958 -0.3890 7.4601 -0.0000 0.0000 0.0000 -83.7282 -10.4749 49.7001 41.9375 -49.1768 -19.8932 -0.0000 0.0000 -4.4251 9.7765 9.2194 1.5813 -7.1250 0.0000 -0.0000 -14.7973 38.9164 2.2765 -0.0000 0.0000 0.0000 83.6143 -27.8389 18.3368 -27.9489 39.0692 -10.0915 0.0000 -0.0000 -5.4396 -9.6031 -9.5954 1.6155 7.1250 -0.0000 -0.0000 15.0321 -39.2709 2.1798
0.00 0.00 0.00 -377.4400 -86.1937 382.5740 0.0000 0.0000 0.0000 -15.9209 -1.6281 6.8715 3.2455 11.0822 32.5576 -0.0719 -10.2452 13.3779 1.1626 -6.8449 -19.2567 0.0000 0.0000 0.0000 19.6093 6.0812 -36.2673 -5.1018 -13.4975 41.2606 179.9871 2.7441 -2.6232 -0.9581 -6.2328 17.4614 -1.5288 -5.4709 -1.3456 4.4620 -7.3313 -3.4175 5.4489 -3.6326 -1.9974 -3.8647 -1.3172 -19.8574 4.2176 -1.5171 14.7666 1.8488 -0.5191 7.8832 0.0000 -0.0000 0.0000 -84.7062 -3.1734 51.9918 37.7146 -46.6560 -16.7577 -0.0000 0.0000 -3.3113 8.3737 9.4170 1.3797 -7.1250 0.0000 -0.0000 -16.0225 39.0023 2.4415 0.0000 -0.0000 0.0000 85.2609 -23.2685 24.5885 -36.2078 45.6556 -15.6709 0.0000 -0.0000 -8.4226 -9.7665 -10.0215 1.7157 7.1250 -0.0000 -0.0000 14.9968 -39.7003 2.0114
0.00 0.00 0.00 -435.9500 -85.1727 440.1090 0.0000 0.0000 0.0000 -10.8268 -1.4402 -2.4510 7.0722 15.3924 49.1470 1.1557 -6.7856 23.8173 0.3146 -3.6057 -9.9699 0.0000 0.0000 0.0000 25.5696 8.3057 -30.2605 -4.4416 -12.7259 38.3509 179.9026 5.0316 -6.1343 -1.2118 -6.9832 19.6657 2.4389 -3.6814 -0.1575 5.2137 -4.9105 -2.8097 4.1145 -2.5080 -2.5512 -3.8105 -1.1996 -20.3065 3.2454 -1.1490 14.3060 1.5577 -0.4321 7.7825 -0.0000 0.0000 0.0000 -84.6931 2.1961 51.4642 33.1308 -43.4304 -13.5119 -0.0000 0.0000 -0.3533 7.8164 8.7219 1.1925 -7.1250 0.0000 -0.0000 -16.3182 38.2877 2.7862 -0.0000 0.0000 0.0000 85.2434 -15.5057 32.9565 -46.8883 51.6607 -23.7108 0.0000 -0.0000 -7.7317 -8.6657 -9.4812 1.4381 7.1250 -0.0000 -0.0000 15.7933 -39.0870 2.3704
0.00 0.00 0.00 -452.0580 -82.8158 454.9950 0.0000 0.0000 0.0000 -7.4150 -2.5280 -10.8690 11.6558 18.2413 64.8937 1.0900 -7.2970 23.6318 0.1375 -2.3900 -6.5847 0.0000 0.0000 0.0000 29.5464 9.6208 -25.9950 -4.1953 -12.4159 37.2196 179.8544 6.1326 -7.4949 -1.1143 -6.7063 18.8481 5.1763 -2.6944 1.1183 5.6671 -3.5189 -1.9531 3.0808 -1.8734 -2.5949 -3.4162 -0.9204 -19.9825 2.6854 -0.7686 13.2453 1.3476 -0.2836 7.3576 0.0000 -0.0000 0.0000 -84.5138 6.1648 49.1559 29.6411 -40.5838 -11.1754 -0.0000 -0.0000 1.5850 7.6608 8.6249 1.1556 -7.1250 0.0000 -0.0000 -16.4240 38.1828 2.8493 0.0000 -0.0000 0.0000 84.6156 -7.0466 40.1818 -57.2396 55.5284 -32.0546 0.0000 -0.0000 -7.6951 -7.9972 -9.6631 1.3509 7.1250 -0.0000 -0.0000 16.3997 -39.2115 2.4154
0.00 0.00 0.00 -455.3010 -81.3059 457.2490 0.0000 0.0000 0.0000 -5.1583 -3.5030 -16.9987 15.0802 19.4095 75.4780 0.6530 -9.4727 21.5126 0.1300 -2.3238 -6.4013 0.0000 0.0000 0.0000 31.9700 9.7230 -23.0850 -3.9809 -12.1349 36.2110 179.8370 6.9112 -8.0858 -1.0658 -6.5633 18.4279 6.6440 -2.2333 2.1190 5.9448 -2.8199 -1.4303 2.5649 -1.5553 -2.6858 -3.1575 -0.7971 -19.4189 2.4863 -0.6486 12.6951 1.2508 -0.2339 7.0774 0.0000 -0.0000 0.0000 -84.3481 8.7182 47.1887 27.4283 -38.5845 -9.7650 -0.0000 -0.0000 1.8506 7.4344 8.6431 1.1234 -7.1250 0.0000 -0.0000 -16.6164 38.1842 2.8843 0.0000 -0.0000 0.0000 84.0813 -0.6504 44.6612 -64.4481 57.3832 -38.0658 0.0000 -0.0000 -8.5781 -8.0626 -9.6615 1.3619 7.1250 -0.0000 -0.0000 16.3444 -39.2151 2.4052
0.00 0.00 0.00 -456.2500 -80.6844 457.7210 0.0000 0.0000 0.0000 -4.1329 -4.0063 -20.2257 17.0609 19.7916 81.3779 -3.4814 -35.1029 32.6966 0.1199 -2.2326 -6.1490 0.0000 0.0000 0.0000 32.9972 9.6166 -21.6715 -3.8577 -11.9685 35.6208 179.8319 7.2588 -8.3025 -1.0499 -6.5157 18.2881 7.2156 -2.0240 2.6146 6.0503 -2.4898 -1.2280 2.3602 -1.4035 -2.7738 -3.0728 -0.7832 -19.0577 2.4597 -0.6569 12.5242 1.2262 -0.2379 6.9614 0.0000 -0.0000 0.0000 -84.2014 9.9547 46.1999 26.4137 -37.6143 -9.1390 -0.0000 -0.0000 1.9593 7.2997 8.5554 1.0917 -7.1250 0.0000 -0.0000 -16.7067 38.0900 2.9412 0.0000 -0.0000 0.0000 83.8445 2.6388 46.6175 -67.7994 58.0532 -40.8994 0.0000 -0.0000 -8.9979 -8.2211 -9.5347 1.3709 7.1250 -0.0000 -0.0000 16.1796 -39.1046 2.4249
